<svg width="62" height="62" viewBox="0 0 62 62" fill="none" xmlns="http://www.w3.org/2000/svg">
<circle cx="31" cy="31" r="31" fill="#131315"/>
<path d="M23.7947 21.2373L31 28.4427L38.168 21.2747C38.3263 21.1061 38.5171 20.9713 38.7288 20.8783C38.9405 20.7853 39.1688 20.736 39.4 20.7333C39.8951 20.7333 40.3699 20.93 40.7199 21.2801C41.07 21.6301 41.2667 22.1049 41.2667 22.6C41.271 22.8289 41.2286 23.0562 41.1419 23.268C41.0552 23.4799 40.9262 23.6718 40.7627 23.832L33.5013 31L40.7627 38.2613C41.0703 38.5623 41.2507 38.9699 41.2667 39.4C41.2667 39.8951 41.07 40.3699 40.7199 40.7199C40.3699 41.07 39.8951 41.2667 39.4 41.2667C39.1621 41.2765 38.9248 41.2368 38.703 41.1501C38.4813 41.0633 38.28 40.9314 38.112 40.7627L31 33.5573L23.8133 40.744C23.6556 40.9069 23.4672 41.037 23.2589 41.1267C23.0507 41.2164 22.8267 41.264 22.6 41.2667C22.1049 41.2667 21.6301 41.07 21.2801 40.7199C20.93 40.3699 20.7333 39.8951 20.7333 39.4C20.729 39.1711 20.7714 38.9438 20.8581 38.732C20.9448 38.5201 21.0738 38.3282 21.2373 38.168L28.4987 31L21.2373 23.7387C20.9297 23.4377 20.7493 23.0301 20.7333 22.6C20.7333 22.1049 20.93 21.6301 21.2801 21.2801C21.6301 20.93 22.1049 20.7333 22.6 20.7333C23.048 20.7389 23.4773 20.92 23.7947 21.2373Z" fill="url(#paint0_linear_10_26)"/>
<defs>
<linearGradient id="paint0_linear_10_26" x1="20.733" y1="20.7333" x2="41.668" y2="21.1507" gradientUnits="userSpaceOnUse">
<stop stop-color="#FB2C7B"/>
<stop offset="1" stop-color="#FF7556"/>
</linearGradient>
</defs>
</svg>
